<?xml version="1.0" encoding="UTF-8"?>
<svg xmlns="http://www.w3.org/2000/svg" xmlns:xlink="http://www.w3.org/1999/xlink" width="32px" height="32px" viewBox="0 0 32 32" version="1.1">
<g id="surface1">
<path style=" stroke:none;fill-rule:nonzero;fill:rgb(0%,0%,0%);fill-opacity:1;" d="M 30.34375 2.316406 C 30.035156 1.621094 29.144531 1.59375 28.773438 2.25 C 27.050781 5.246094 23.964844 7.109375 20.445312 7.109375 L 16 7.109375 C 10.109375 7.109375 5.332031 11.890625 5.332031 17.777344 C 5.332031 18.167969 5.378906 18.539062 5.417969 18.917969 C 8.960938 16.378906 14.078125 14.222656 21.332031 14.222656 C 21.820312 14.222656 22.222656 14.621094 22.222656 15.109375 C 22.222656 15.601562 21.820312 16 21.332031 16 C 7.367188 16 1.445312 24.5625 0.132812 27.777344 C -0.234375 28.683594 0.199219 29.714844 1.105469 30.089844 C 2.015625 30.464844 3.050781 30.027344 3.429688 29.128906 C 3.511719 28.929688 4.589844 26.464844 7.421875 24.09375 C 9.222656 26.535156 12.644531 28.859375 17.140625 28.382812 C 25.859375 27.75 32 19.929688 32 10.351562 C 32 7.5625 31.398438 4.671875 30.34375 2.316406 Z M 30.34375 2.316406 "/>
</g>
</svg>
